<?xml version="1.0" encoding="utf-8"?>
<!-- Generator: Adobe Illustrator 15.0.2, SVG Export Plug-In . SVG Version: 6.00 Build 0)  -->
<!DOCTYPE svg PUBLIC "-//W3C//DTD SVG 1.1//EN" "http://www.w3.org/Graphics/SVG/1.1/DTD/svg11.dtd">
<svg version="1.1" xmlns="http://www.w3.org/2000/svg" xmlns:xlink="http://www.w3.org/1999/xlink" x="0px" y="0px" width="300px"
	 height="300px" viewBox="0 0 300 300" enable-background="new 0 0 300 300" xml:space="preserve">
<g id="Background">
	<g>
		<path fill="#F66D3C" d="M300,290c0,5.5-4.5,10-10,10H10c-5.5,0-10-4.5-10-10V10C0,4.5,4.5,0,10,0h280c5.5,0,10,4.5,10,10V290z"/>
	</g>
	<g>
		<path fill="#424242" d="M295,285c0,5.5-4.5,10-10,10H15c-5.5,0-10-4.5-10-10V15C5,9.5,9.5,5,15,5h270c5.5,0,10,4.5,10,10V285z"/>
	</g>
	<g>
		<path fill="#F66D3C" d="M290,280c0,5.5-4.5,10-10,10H20c-5.5,0-10-4.5-10-10V20c0-5.5,4.5-10,10-10h260c5.5,0,10,4.5,10,10V280z"
			/>
	</g>
</g>
<g id="Main">
	<g id="FX">
		<g id="F">
			<path fill="#FFFFFF" d="M165.082,75.055c-1.047,0.873-2.378,1.418-3.989,1.635c-1.615,0.219-3.381,0.328-5.297,0.328
				c-3.839,0-7.455,0.064-10.856,0.195c-3.4,0.131-5.932,0.197-7.586,0.197c-2.182,0-5.101,0.176-8.763,0.523
				c-3.663,0.35-7.633,0.785-11.902,1.308c-4.274,0.523-8.634,1.157-13.081,1.896c-4.447,0.742-8.589,1.504-12.426,2.289
				c-3.838,0.785-7.128,1.592-9.875,2.419c-2.746,0.83-4.558,1.592-5.428,2.289c-0.522,0.872-1.353,3.38-2.484,7.521
				c-1.135,4.142-2.27,9.156-3.401,15.041c-1.134,5.886-2.138,12.275-3.008,19.162c-0.873,6.889-1.309,13.56-1.309,20.012
				c4.795-0.959,9.723-2.027,14.78-3.205c5.056-1.177,10.55-2.289,16.48-3.335c3.225-0.523,6.69-1.308,10.398-2.354
				c3.705-1.047,7.433-2.093,11.184-3.139c3.747-1.046,7.39-1.962,10.921-2.747c3.531-0.785,6.735-1.177,9.614-1.177
				c3.138,0,5.773,0.11,7.912,0.327c2.135,0.218,3.878,0.676,5.232,1.374c1.35,0.699,2.308,1.765,2.877,3.204
				c0.564,1.438,0.851,3.422,0.851,5.951c0,2.268-0.547,4.47-1.635,6.605c-1.093,2.138-2.509,4.12-4.251,5.95
				c-1.224,1.309-3.513,2.531-6.867,3.663c-3.358,1.134-6.979,2.158-10.855,3.073c-3.883,0.916-7.587,1.7-11.118,2.354
				s-6.082,1.112-7.652,1.374c-6.104,1.045-12.144,2.203-18.115,3.465c-5.974,1.266-11.358,2.51-16.153,3.727
				c-4.796,1.225-8.742,2.379-11.836,3.467c-3.096,1.094-4.82,1.986-5.167,2.682c-0.611,1.396-1.111,3.27-1.504,5.623
				c-0.393,2.355-0.72,4.994-0.98,7.914c-0.263,2.924-0.438,5.996-0.523,9.221c-0.089,3.229-0.131,6.41-0.131,9.549
				c0,5.146-0.022,9.463-0.066,12.949c-0.045,3.488-0.064,7.02-0.064,10.594c0,2.182-0.131,4.275-0.393,6.279
				s-0.851,3.771-1.766,5.295c-0.916,1.525-2.289,2.748-4.12,3.662c-1.831,0.918-4.273,1.375-7.324,1.375c-0.438,0-0.896,0-1.374,0
				c-0.479,0-0.938-0.045-1.373-0.131c-0.523-0.086-1.746-0.479-3.662-1.178c-1.919-0.699-3.924-1.811-6.017-3.334
				c-2.093-1.527-3.946-3.422-5.56-5.689c-1.614-2.266-2.419-5.014-2.419-8.24c0-10.113,0.565-19.988,1.7-29.625
				c1.132-9.635,2.136-18.42,3.008-26.357c0.086-0.607,0.327-2.307,0.72-5.1c0.393-2.789,0.894-6.299,1.504-10.528
				c0.609-4.229,1.309-8.98,2.093-14.257c0.785-5.275,1.57-10.638,2.354-16.088c0.784-5.448,1.547-10.81,2.289-16.088
				c0.739-5.274,1.416-10.049,2.027-14.322c0.608-4.271,1.09-7.826,1.438-10.66c0.348-2.832,0.523-4.556,0.523-5.166
				c0-1.132-0.176-2.289-0.523-3.467c-0.349-1.177-0.741-2.375-1.177-3.597c-0.438-1.22-0.83-2.463-1.178-3.728
				c-0.349-1.263-0.522-2.551-0.522-3.858c0-1.655,0.543-3.4,1.635-5.231c1.09-1.831,2.439-3.509,4.055-5.036
				c1.612-1.524,3.355-2.79,5.231-3.793c1.875-1.001,3.597-1.504,5.167-1.504c3.574,0,6.625,0.307,9.155,0.915
				c2.528,0.611,4.925,0.916,7.194,0.916c3.313,0,7.302-0.392,11.967-1.177c4.664-0.785,9.961-1.786,15.893-3.009
				c5.144-1.046,10.287-2.027,15.434-2.942c5.144-0.916,10.179-1.744,15.106-2.485c4.925-0.74,9.655-1.328,14.191-1.766
				c4.532-0.435,8.764-0.654,12.688-0.654c1.48,0,3.271,0.372,5.362,1.112c2.094,0.742,4.12,1.7,6.083,2.877
				c1.962,1.177,3.616,2.507,4.97,3.989c1.351,1.483,2.027,2.922,2.027,4.316c0,2.616-0.72,5.32-2.158,8.109
				c-1.439,2.792-4.209,5.582-8.306,8.372L165.082,75.055z"/>
		</g>
		<g id="X">
			<path fill="#FFFFFF" d="M275,210.428c0,0.525-0.163,1.26-0.491,2.207c-0.328,0.949-0.802,1.979-1.423,3.09
				c-0.621,1.113-1.357,2.271-2.207,3.482c-0.851,1.211-1.766,2.371-2.746,3.482c-6.736,7.26-14.028,12.885-21.876,16.873
				c-7.847,3.99-16.023,6.016-24.524,6.082c-5.429,0-10.774-1.848-16.037-5.543c-5.266-3.693-11.135-9.203-17.609-16.529
				c-2.942,3.271-6.066,6.951-9.369,11.035c-3.302,4.09-6.521,7.996-9.661,11.723c-0.981,1.111-1.93,2.125-2.845,3.043
				c-0.917,0.914-1.913,1.682-2.992,2.305c-1.078,0.619-2.256,1.092-3.532,1.424c-1.273,0.326-2.762,0.488-4.462,0.488
				c-1.702,0-3.353-0.293-4.955-0.881c-1.603-0.59-3.039-1.424-4.316-2.504c-1.274-1.078-2.305-2.371-3.089-3.875
				c-0.785-1.504-1.178-3.139-1.178-4.904c0-2.092,0.408-3.84,1.228-5.248c0.815-1.404,1.895-2.697,3.235-3.873
				c1.341-1.178,2.86-2.307,4.563-3.387c1.7-1.078,3.433-2.305,5.199-3.676c1.177-0.918,2.565-2.076,4.168-3.484
				c1.603-1.406,3.238-2.877,4.904-4.414c1.67-1.535,3.304-3.057,4.906-4.563c1.602-1.502,2.958-2.777,4.071-3.824
				c-1.047-1.178-2.192-2.516-3.434-4.023c-1.243-1.504-2.453-3.072-3.63-4.709c-1.177-1.633-2.306-3.252-3.384-4.855
				c-1.08-1.6-2.012-3.088-2.797-4.463c-2.812-5.166-4.954-9.645-6.424-13.439c-1.473-3.791-2.208-7.063-2.208-9.809
				c0-4.905,1.079-8.697,3.237-11.38c2.157-2.681,5.853-4.022,11.085-4.022c2.289,0,4.153,0.492,5.591,1.473
				c1.438,0.98,2.599,2.174,3.483,3.58c0.881,1.408,1.52,2.894,1.912,4.463c0.393,1.57,0.652,2.943,0.784,4.121
				c0.458,3.335,1.096,6.295,1.913,8.877c0.817,2.584,1.766,4.955,2.846,7.113c1.078,2.156,2.271,4.186,3.58,6.082
				c1.308,1.896,2.648,3.793,4.021,5.689c0.786-0.852,1.668-1.781,2.649-2.797c0.98-1.012,1.978-2.061,2.991-3.141
				c1.013-1.078,1.978-2.141,2.894-3.188c0.916-1.043,1.732-1.992,2.452-2.844c0.982-1.176,2.109-2.615,3.386-4.314
				c1.273-1.701,2.551-3.498,3.824-5.397c1.277-1.896,2.469-3.825,3.582-5.788c1.111-1.961,1.994-3.791,2.648-5.492
				c0.915-1.963,1.798-3.582,2.648-4.857c0.849-1.273,1.749-2.271,2.697-2.99c0.948-0.719,1.994-1.227,3.138-1.521
				c1.146-0.294,2.469-0.441,3.975-0.441c1.504,0,3.024,0.312,4.563,0.932c1.534,0.622,2.926,1.487,4.168,2.599
				c1.241,1.114,2.257,2.422,3.041,3.924c0.784,1.506,1.178,3.14,1.178,4.906c0,1.373-0.623,3.09-1.865,5.148
				c-1.242,2.061-2.812,4.303-4.708,6.72c-1.897,2.421-3.989,4.938-6.278,7.556c-2.291,2.615-4.512,5.197-6.67,7.748
				c-0.981,1.176-2.176,2.5-3.579,3.975c-1.409,1.469-2.896,3.025-4.466,4.656c-1.569,1.637-3.173,3.305-4.807,5.006
				c-1.635,1.699-3.236,3.334-4.806,4.904c1.7,2.092,3.693,4.154,5.983,6.18c2.289,2.027,4.659,3.842,7.112,5.443
				c2.452,1.604,4.855,2.895,7.21,3.875c2.354,0.982,4.447,1.471,6.278,1.471c3.14,0,5.967-0.293,8.485-0.881
				c2.517-0.59,4.806-1.34,6.868-2.258c2.058-0.914,3.972-1.994,5.737-3.236s3.53-2.484,5.298-3.727
				c1.372-0.98,2.664-2.043,3.875-3.189c1.208-1.143,2.354-2.174,3.432-3.09c1.08-0.916,2.109-1.682,3.091-2.305
				c0.98-0.621,1.896-0.932,2.746-0.932c1.241,0,2.24,0.133,2.991,0.391c0.752,0.264,1.324,0.607,1.718,1.031
				c0.393,0.426,0.653,0.883,0.785,1.373C274.934,209.594,275,210.033,275,210.428z"/>
		</g>
	</g>
</g>
</svg>
