<?xml version="1.0" encoding="utf-8"?>
<!-- Generator: Adobe Illustrator 15.0.2, SVG Export Plug-In . SVG Version: 6.00 Build 0)  -->
<!DOCTYPE svg PUBLIC "-//W3C//DTD SVG 1.1//EN" "http://www.w3.org/Graphics/SVG/1.1/DTD/svg11.dtd">
<svg version="1.1" xmlns="http://www.w3.org/2000/svg" xmlns:xlink="http://www.w3.org/1999/xlink" x="0px" y="0px" width="300px"
	 height="300px" viewBox="0 0 300 300" enable-background="new 0 0 300 300" xml:space="preserve">
<g id="Background">
	<g>
		<path fill="#AF39B4" d="M300,290c0,5.5-4.5,10-10,10H10c-5.5,0-10-4.5-10-10V10C0,4.5,4.5,0,10,0h280c5.5,0,10,4.5,10,10V290z"/>
	</g>
	<g>
		<path fill="#424242" d="M295,285c0,5.5-4.5,10-10,10H15c-5.5,0-10-4.5-10-10V15C5,9.5,9.5,5,15,5h270c5.5,0,10,4.5,10,10V285z"/>
	</g>
	<g>
		<path fill="#AF39B4" d="M290,280c0,5.5-4.5,10-10,10H20c-5.5,0-10-4.5-10-10V20c0-5.5,4.5-10,10-10h260c5.5,0,10,4.5,10,10V280z"
			/>
	</g>
</g>
<g id="Sun">
	<g>
		<path fill="#FFFFFF" d="M258.629,149.998c-7.615-1.397-16.873,10.538-20.834,2.977c6.522-19.106-1.934-23.602-5.948-38.69
			c5.235-1.727,17.5,3.601,17.855-2.977c-13.122-2.737-21.813-9.91-29.761-17.856c1.369-15.504,15.236-18.512,20.834-29.76
			c-14.971,1.904-19.346,14.403-38.69,11.903c-1.758-12.678,2.143-19.671,2.977-29.763c-8.931,2.978-2.501,21.311-14.884,20.833
			c0-5.95,0-11.904,0-17.855c-6.721,4.196-2.439,19.373-14.877,17.855c1.922-1.81,1.946-5.5,3.618-7.554
			c-7.145,0.981-28.405-3.552-24.454,7.554C133.455,62.886,128.9,42.619,121.729,25c-5.269,13.898,7.35,35.982-2.979,50.595
			c-8.511-0.418-5.446-12.41-5.95-20.834C105.3,69.762,97.682,91.396,74.107,81.547c3.87,8.214,16.102,5.954,23.812,2.978
			c-7.53,18.66-31.458,14.166-53.571,11.904c9.076,5.802,23.421,6.337,32.738,11.904c-6.637,8.243-23.364,6.396-35.715,8.929
			c12.323,7.439,26.16-3.037,38.692,5.95c-3.664,11.222-12.917,16.847-20.836,23.811c8.186,4.703,14.526,11.25,20.836,17.858
			c-6.132,10.922-15.507,0.173-29.765,2.973c10.09,7.771,27.113,8.603,32.737,20.836c-0.415,17.439-12.646,23.067-20.832,32.733
			c7.979,5.838,22.263-23.182,35.715-11.899c1.487,11.544-16.072,19.437-8.929,26.784c6.1-6.313,12.647-10.505,26.782-14.885
			c-4.729,4.464,0.091,12.535,5.957,14.885c3.51-4.438,2.589-13.307,11.903-11.905c25.297,7.442,31.754,33.716,47.618,50.598
			c-2.649-12.324-14.914-30.596-5.95-44.642c6.578-4.413,21.334,2.911,29.761,5.949c-1.695-14.588,4.639-21.13,11.905-26.784
			c17.141,1.753,30.476,23.009,41.662,20.835C234.88,213.954,230.121,164.612,258.629,149.998z M169.347,215.473
			C87.056,227.023,58.901,99.91,145.538,84.524c36.548-6.488,70.026,13.809,77.382,44.642
			C235.684,182.825,198.689,211.365,169.347,215.473z"/>
		<path fill="#FFFFFF" d="M181.251,57.737c-1.045,0.193-1.775,0.693-2.332,1.374C180.332,58.917,181.251,58.529,181.251,57.737z"/>
	</g>
</g>
</svg>

